<svg width="15" height="14" viewBox="0 0 15 14" fill="none" xmlns="http://www.w3.org/2000/svg">
<path d="M13.8719 6.58207L7.83444 0.547696L7.42975 0.143008C7.33754 0.051409 7.21285 0 7.08288 0C6.95291 0 6.82821 0.051409 6.736 0.143008L0.293815 6.58207C0.199332 6.67618 0.124661 6.78827 0.0742087 6.91172C0.0237565 7.03517 -0.00145411 7.16747 6.47651e-05 7.30082C0.00631477 7.85082 0.464127 8.28988 1.01413 8.28988H1.67819V13.3789H12.4876V8.28988H13.1657C13.4329 8.28988 13.6844 8.1852 13.8735 7.99613C13.9666 7.90334 14.0404 7.793 14.0905 7.6715C14.1407 7.55 14.1662 7.41976 14.1657 7.28832C14.1657 7.0227 14.061 6.77113 13.8719 6.58207V6.58207ZM7.95788 12.2539H6.20788V9.06645H7.95788V12.2539ZM11.3626 7.16488V12.2539H8.95788V8.69145C8.95788 8.34613 8.67819 8.06645 8.33288 8.06645H5.83288C5.48756 8.06645 5.20788 8.34613 5.20788 8.69145V12.2539H2.80319V7.16488H1.30319L7.08444 1.38832L7.44538 1.74926L12.8641 7.16488H11.3626Z" fill="#182B49"/>
</svg>
