<svg width="13" height="13" viewBox="0 0 13 13" fill="none" xmlns="http://www.w3.org/2000/svg">
<path d="M3.375 6.75H5.75V9.125C5.75 9.19375 5.80625 9.25 5.875 9.25H6.625C6.69375 9.25 6.75 9.19375 6.75 9.125V6.75H9.125C9.19375 6.75 9.25 6.69375 9.25 6.625V5.875C9.25 5.80625 9.19375 5.75 9.125 5.75H6.75V3.375C6.75 3.30625 6.69375 3.25 6.625 3.25H5.875C5.80625 3.25 5.75 3.30625 5.75 3.375V5.75H3.375C3.30625 5.75 3.25 5.80625 3.25 5.875V6.625C3.25 6.69375 3.30625 6.75 3.375 6.75Z" fill="#182B49"/>
<path d="M12 0H0.5C0.223437 0 0 0.223437 0 0.5V12C0 12.2766 0.223437 12.5 0.5 12.5H12C12.2766 12.5 12.5 12.2766 12.5 12V0.5C12.5 0.223437 12.2766 0 12 0ZM11.375 11.375H1.125V1.125H11.375V11.375Z" fill="#182B49"/>
</svg>
